<svg width="50" height="50" fill="none" xmlns="http://www.w3.org/2000/svg"><circle cx="25" cy="25" r="25" fill="url(#paint0_linear_103897_21)"/><path d="M35.058 19.945a2.624 2.624 0 00-1.853-1.852C31.57 17.65 25 17.65 25 17.65s-6.57 0-8.205.443a2.625 2.625 0 00-1.852 1.852A27.092 27.092 0 0014.5 25a27.092 27.092 0 00.443 5.055 2.625 2.625 0 001.852 1.853c1.635.442 8.205.442 8.205.442s6.57 0 8.205-.442a2.625 2.625 0 001.853-1.853A27.1 27.1 0 0035.5 25a27.1 27.1 0 00-.442-5.055zM22.9 28.15v-6.3L28.353 25 22.9 28.15z" fill="#fff"/><defs><linearGradient id="paint0_linear_103897_21" x1="5.111" y1="0" x2="48.239" y2="3.215" gradientUnits="userSpaceOnUse"><stop stop-color="#C89AFC"/><stop offset="1" stop-color="#7C6AFA"/></linearGradient></defs></svg>