<svg width="50" height="50" fill="none" xmlns="http://www.w3.org/2000/svg"><circle cx="25" cy="25" r="25" fill="url(#paint0_linear_103897_24)"/><path d="M29.5 13h-9a7.5 7.5 0 00-7.5 7.5v9a7.5 7.5 0 007.5 7.5h9a7.5 7.5 0 007.5-7.5v-9a7.5 7.5 0 00-7.5-7.5zm5.25 16.5a5.256 5.256 0 01-5.25 5.25h-9a5.256 5.256 0 01-5.25-5.25v-9a5.256 5.256 0 015.25-5.25h9a5.256 5.256 0 015.25 5.25v9z" fill="#fff"/><path d="M25 19a6 6 0 100 12 6 6 0 000-12zm0 9.75A3.755 3.755 0 0121.25 25 3.754 3.754 0 0125 21.25 3.754 3.754 0 0128.75 25 3.755 3.755 0 0125 28.75zm6.448-9.4a.8.8 0 100-1.599.8.8 0 000 1.599z" fill="#fff"/><defs><linearGradient id="paint0_linear_103897_24" x1="5.111" y1="0" x2="48.239" y2="3.215" gradientUnits="userSpaceOnUse"><stop stop-color="#C89AFC"/><stop offset="1" stop-color="#7C6AFA"/></linearGradient></defs></svg>