<svg width="49" height="50" fill="none" xmlns="http://www.w3.org/2000/svg"><g clip-path="url(#clip0_10112_31)"><circle cx="24" cy="25" r="25" fill="url(#paint0_linear_10112_31)"/><path fill-rule="evenodd" clip-rule="evenodd" d="M34.143 28.216s2.102 2.234 2.622 3.268c.01.015.018.032.023.05.212.382.264.681.16.902-.175.365-.77.549-.971.564h-3.715c-.26 0-.797-.073-1.453-.56-.5-.376-.998-.996-1.48-1.602-.72-.9-1.343-1.68-1.974-1.68a.666.666 0 00-.234.041c-.477.163-1.082.895-1.082 2.844 0 .61-.448.957-.761.957h-1.702c-.58 0-3.598-.218-6.275-3.256-3.28-3.72-6.225-11.18-6.254-11.247-.183-.482.201-.746.617-.746h3.752c.503 0 .667.328.782.622.132.337.623 1.686 1.43 3.201 1.305 2.466 2.107 3.47 2.748 3.47a.65.65 0 00.343-.099c.837-.495.681-3.713.642-4.377 0-.128-.001-1.437-.43-2.07-.307-.453-.83-.629-1.146-.693.085-.132.264-.333.494-.452.574-.308 1.61-.353 2.638-.353h.57c1.116.017 1.405.094 1.81.204.817.21.832.78.761 2.72-.02.553-.043 1.178-.043 1.912 0 .157-.006.332-.006.51-.025.994-.058 2.115.595 2.576a.505.505 0 00.282.086c.226 0 .904 0 2.74-3.393.806-1.499 1.43-3.266 1.473-3.399.037-.074.146-.283.279-.367a.588.588 0 01.306-.078h4.414c.48 0 .807.078.87.274.107.318-.02 1.288-2.035 4.22-.34.49-.637.912-.898 1.281-1.827 2.58-1.827 2.71.108 4.67z" fill="#fff"/></g><defs><linearGradient id="paint0_linear_10112_31" x1="4.111" y1="0" x2="47.239" y2="3.215" gradientUnits="userSpaceOnUse"><stop stop-color="#C89AFC"/><stop offset="1" stop-color="#7C6AFA"/></linearGradient><clipPath id="clip0_10112_31"><path fill="#fff" d="M0 0h49v50H0z"/></clipPath></defs></svg>